<mxfile host="app.diagrams.net" agent="Mozilla/5.0 (Windows NT 10.0; Win64; x64) AppleWebKit/537.36 (KHTML, like Gecko) Chrome/134.0.0.0 Safari/537.36" version="26.1.1">
  <diagram name="PÃ¡gina-1" id="i35IwmXvVQKmD29PBA4Z">
    <mxGraphModel dx="1194" dy="756" grid="1" gridSize="10" guides="1" tooltips="1" connect="1" arrows="1" fold="1" page="1" pageScale="1" pageWidth="1169" pageHeight="827" math="0" shadow="0">
      <root>
        <mxCell id="0" />
        <mxCell id="1" parent="0" />
        <mxCell id="5LPZ8JhkKM64RX59Qe6A-1" value="Frontend" style="rounded=1;arcSize=10;whiteSpace=wrap;html=1;align=center;" parent="1" vertex="1">
          <mxGeometry x="340" y="590" width="80" height="60" as="geometry" />
        </mxCell>
        <mxCell id="5LPZ8JhkKM64RX59Qe6A-2" value="MAAT Search API" style="rounded=1;arcSize=10;whiteSpace=wrap;html=1;align=center;" parent="1" vertex="1">
          <mxGeometry x="560" y="590" width="120" height="60" as="geometry" />
        </mxCell>
        <mxCell id="5LPZ8JhkKM64RX59Qe6A-5" value="DB Customer C" style="whiteSpace=wrap;html=1;align=center;" parent="1" vertex="1">
          <mxGeometry x="760" y="600" width="120" height="40" as="geometry" />
        </mxCell>
        <mxCell id="5LPZ8JhkKM64RX59Qe6A-6" value="DB Customer B" style="whiteSpace=wrap;html=1;align=center;" parent="1" vertex="1">
          <mxGeometry x="760" y="520" width="120" height="40" as="geometry" />
        </mxCell>
        <mxCell id="5LPZ8JhkKM64RX59Qe6A-7" value="DB Customer A" style="whiteSpace=wrap;html=1;align=center;" parent="1" vertex="1">
          <mxGeometry x="760" y="440" width="120" height="40" as="geometry" />
        </mxCell>
        <mxCell id="5LPZ8JhkKM64RX59Qe6A-8" value="DB Customer D" style="whiteSpace=wrap;html=1;align=center;" parent="1" vertex="1">
          <mxGeometry x="760" y="680" width="120" height="40" as="geometry" />
        </mxCell>
        <mxCell id="5LPZ8JhkKM64RX59Qe6A-9" value="DB Customer E" style="whiteSpace=wrap;html=1;align=center;" parent="1" vertex="1">
          <mxGeometry x="760" y="760" width="120" height="40" as="geometry" />
        </mxCell>
        <mxCell id="5LPZ8JhkKM64RX59Qe6A-10" value="" style="endArrow=classic;startArrow=classic;html=1;rounded=0;entryX=0;entryY=0.5;entryDx=0;entryDy=0;" parent="1" target="5LPZ8JhkKM64RX59Qe6A-7" edge="1">
          <mxGeometry width="50" height="50" relative="1" as="geometry">
            <mxPoint x="680" y="600" as="sourcePoint" />
            <mxPoint x="730" y="550" as="targetPoint" />
          </mxGeometry>
        </mxCell>
        <mxCell id="5LPZ8JhkKM64RX59Qe6A-11" value="" style="endArrow=classic;startArrow=classic;html=1;rounded=0;exitX=1;exitY=0.25;exitDx=0;exitDy=0;entryX=0;entryY=0.5;entryDx=0;entryDy=0;" parent="1" target="5LPZ8JhkKM64RX59Qe6A-6" edge="1">
          <mxGeometry width="50" height="50" relative="1" as="geometry">
            <mxPoint x="680" y="610" as="sourcePoint" />
            <mxPoint x="770" y="600" as="targetPoint" />
          </mxGeometry>
        </mxCell>
        <mxCell id="5LPZ8JhkKM64RX59Qe6A-12" value="" style="endArrow=classic;startArrow=classic;html=1;rounded=0;exitX=1;exitY=0.5;exitDx=0;exitDy=0;entryX=0;entryY=0.5;entryDx=0;entryDy=0;" parent="1" target="5LPZ8JhkKM64RX59Qe6A-5" edge="1">
          <mxGeometry width="50" height="50" relative="1" as="geometry">
            <mxPoint x="680" y="620" as="sourcePoint" />
            <mxPoint x="770" y="600" as="targetPoint" />
          </mxGeometry>
        </mxCell>
        <mxCell id="5LPZ8JhkKM64RX59Qe6A-13" value="" style="endArrow=classic;startArrow=classic;html=1;rounded=0;exitX=1;exitY=0.75;exitDx=0;exitDy=0;entryX=0;entryY=0.5;entryDx=0;entryDy=0;" parent="1" target="5LPZ8JhkKM64RX59Qe6A-8" edge="1">
          <mxGeometry width="50" height="50" relative="1" as="geometry">
            <mxPoint x="680" y="630" as="sourcePoint" />
            <mxPoint x="770" y="600" as="targetPoint" />
          </mxGeometry>
        </mxCell>
        <mxCell id="5LPZ8JhkKM64RX59Qe6A-14" value="" style="endArrow=classic;startArrow=classic;html=1;rounded=0;exitX=1;exitY=1;exitDx=0;exitDy=0;entryX=0;entryY=0.5;entryDx=0;entryDy=0;" parent="1" target="5LPZ8JhkKM64RX59Qe6A-9" edge="1">
          <mxGeometry width="50" height="50" relative="1" as="geometry">
            <mxPoint x="680" y="640" as="sourcePoint" />
            <mxPoint x="770" y="600" as="targetPoint" />
          </mxGeometry>
        </mxCell>
        <mxCell id="5LPZ8JhkKM64RX59Qe6A-15" value="Customer C&lt;strong data-end=&quot;323&quot; data-start=&quot;306&quot;&gt;onfiguration&lt;/strong&gt;&amp;nbsp;Database" style="swimlane;whiteSpace=wrap;html=1;" parent="1" vertex="1">
          <mxGeometry x="260" y="40" width="240" height="280" as="geometry">
            <mxRectangle x="160" y="40" width="230" height="30" as="alternateBounds" />
          </mxGeometry>
        </mxCell>
        <mxCell id="5LPZ8JhkKM64RX59Qe6A-21" value="&lt;strong data-end=&quot;405&quot; data-start=&quot;394&quot;&gt;clients&lt;/strong&gt;: Stores client information and its database connection." style="text;strokeColor=none;fillColor=none;align=left;verticalAlign=middle;spacingLeft=4;spacingRight=4;overflow=hidden;points=[[0,0.5],[1,0.5]];portConstraint=eastwest;rotatable=0;whiteSpace=wrap;html=1;" parent="5LPZ8JhkKM64RX59Qe6A-15" vertex="1">
          <mxGeometry x="10" y="80" width="220" height="30" as="geometry" />
        </mxCell>
        <mxCell id="5LPZ8JhkKM64RX59Qe6A-22" value="&lt;strong data-end=&quot;487&quot; data-start=&quot;468&quot;&gt;client_settings&lt;/strong&gt;: Stores UI settings like colors, language, etc." style="text;strokeColor=none;fillColor=none;align=left;verticalAlign=middle;spacingLeft=4;spacingRight=4;overflow=hidden;points=[[0,0.5],[1,0.5]];portConstraint=eastwest;rotatable=0;whiteSpace=wrap;html=1;" parent="5LPZ8JhkKM64RX59Qe6A-15" vertex="1">
          <mxGeometry x="10" y="120" width="220" height="30" as="geometry" />
        </mxCell>
        <mxCell id="5LPZ8JhkKM64RX59Qe6A-23" value="&lt;strong data-end=&quot;561&quot; data-start=&quot;542&quot;&gt;client_features&lt;/strong&gt;: Feature toggles to enable or disable functionalities." style="text;strokeColor=none;fillColor=none;align=left;verticalAlign=middle;spacingLeft=4;spacingRight=4;overflow=hidden;points=[[0,0.5],[1,0.5]];portConstraint=eastwest;rotatable=0;whiteSpace=wrap;html=1;" parent="5LPZ8JhkKM64RX59Qe6A-15" vertex="1">
          <mxGeometry x="10" y="160" width="220" height="30" as="geometry" />
        </mxCell>
        <mxCell id="5LPZ8JhkKM64RX59Qe6A-24" value="&lt;strong data-end=&quot;645&quot; data-start=&quot;623&quot;&gt;client_permissions&lt;/strong&gt;: Defines roles and permissions per client." style="text;strokeColor=none;fillColor=none;align=left;verticalAlign=middle;spacingLeft=4;spacingRight=4;overflow=hidden;points=[[0,0.5],[1,0.5]];portConstraint=eastwest;rotatable=0;whiteSpace=wrap;html=1;" parent="5LPZ8JhkKM64RX59Qe6A-15" vertex="1">
          <mxGeometry x="10" y="200" width="220" height="30" as="geometry" />
        </mxCell>
        <mxCell id="5LPZ8JhkKM64RX59Qe6A-25" value="&lt;b&gt;etc...&lt;/b&gt;" style="text;strokeColor=none;fillColor=none;align=left;verticalAlign=middle;spacingLeft=4;spacingRight=4;overflow=hidden;points=[[0,0.5],[1,0.5]];portConstraint=eastwest;rotatable=0;whiteSpace=wrap;html=1;" parent="5LPZ8JhkKM64RX59Qe6A-15" vertex="1">
          <mxGeometry x="10" y="240" width="220" height="30" as="geometry" />
        </mxCell>
        <mxCell id="5LPZ8JhkKM64RX59Qe6A-27" value="&lt;b&gt;&lt;u&gt;Main tables:&lt;/u&gt;&lt;/b&gt;" style="text;strokeColor=none;fillColor=none;align=left;verticalAlign=middle;spacingLeft=4;spacingRight=4;overflow=hidden;points=[[0,0.5],[1,0.5]];portConstraint=eastwest;rotatable=0;whiteSpace=wrap;html=1;" parent="5LPZ8JhkKM64RX59Qe6A-15" vertex="1">
          <mxGeometry x="10" y="40" width="220" height="30" as="geometry" />
        </mxCell>
        <mxCell id="5LPZ8JhkKM64RX59Qe6A-29" value="" style="strokeWidth=2;html=1;shape=mxgraph.flowchart.annotation_2;align=left;labelPosition=right;pointerEvents=1;rotation=-180;" parent="1" vertex="1">
          <mxGeometry x="890" y="440" width="60" height="360" as="geometry" />
        </mxCell>
        <mxCell id="5LPZ8JhkKM64RX59Qe6A-31" value="&lt;h1 style=&quot;margin-top: 0px;&quot;&gt;&lt;span style=&quot;text-align: center; text-wrap-mode: nowrap;&quot;&gt;Isolated Aproach&lt;/span&gt;&lt;/h1&gt;&lt;p&gt;Each client has its own &lt;strong data-end=&quot;971&quot; data-start=&quot;950&quot;&gt;separate database&lt;/strong&gt; to store sensitive data.&lt;/p&gt;" style="text;html=1;whiteSpace=wrap;overflow=hidden;rounded=0;" parent="1" vertex="1">
          <mxGeometry x="960" y="600" width="200" height="80" as="geometry" />
        </mxCell>
        <mxCell id="5LPZ8JhkKM64RX59Qe6A-32" value="" style="endArrow=classic;html=1;rounded=0;" parent="1" edge="1">
          <mxGeometry relative="1" as="geometry">
            <mxPoint x="420" y="600" as="sourcePoint" />
            <mxPoint x="560" y="600" as="targetPoint" />
          </mxGeometry>
        </mxCell>
        <mxCell id="5LPZ8JhkKM64RX59Qe6A-33" value="&lt;font&gt;customer_a_name&lt;/font&gt;" style="edgeLabel;resizable=0;html=1;;align=center;verticalAlign=middle;fontSize=10;" parent="5LPZ8JhkKM64RX59Qe6A-32" connectable="0" vertex="1">
          <mxGeometry relative="1" as="geometry" />
        </mxCell>
        <mxCell id="5LPZ8JhkKM64RX59Qe6A-35" value="" style="endArrow=classic;html=1;rounded=0;" parent="1" edge="1">
          <mxGeometry relative="1" as="geometry">
            <mxPoint x="420" y="610" as="sourcePoint" />
            <mxPoint x="560" y="610" as="targetPoint" />
          </mxGeometry>
        </mxCell>
        <mxCell id="5LPZ8JhkKM64RX59Qe6A-36" value="&lt;font&gt;customer_b_name&lt;/font&gt;" style="edgeLabel;resizable=0;html=1;;align=center;verticalAlign=middle;fontSize=10;" parent="5LPZ8JhkKM64RX59Qe6A-35" connectable="0" vertex="1">
          <mxGeometry relative="1" as="geometry" />
        </mxCell>
        <mxCell id="5LPZ8JhkKM64RX59Qe6A-37" value="" style="endArrow=classic;html=1;rounded=0;" parent="1" edge="1">
          <mxGeometry relative="1" as="geometry">
            <mxPoint x="420" y="620" as="sourcePoint" />
            <mxPoint x="560" y="619.5" as="targetPoint" />
          </mxGeometry>
        </mxCell>
        <mxCell id="5LPZ8JhkKM64RX59Qe6A-38" value="&lt;font&gt;customer_c_name&lt;/font&gt;" style="edgeLabel;resizable=0;html=1;;align=center;verticalAlign=middle;fontSize=10;" parent="5LPZ8JhkKM64RX59Qe6A-37" connectable="0" vertex="1">
          <mxGeometry relative="1" as="geometry" />
        </mxCell>
        <mxCell id="5LPZ8JhkKM64RX59Qe6A-40" value="" style="endArrow=classic;html=1;rounded=0;" parent="1" edge="1">
          <mxGeometry relative="1" as="geometry">
            <mxPoint x="420" y="630" as="sourcePoint" />
            <mxPoint x="560" y="630" as="targetPoint" />
          </mxGeometry>
        </mxCell>
        <mxCell id="5LPZ8JhkKM64RX59Qe6A-41" value="&lt;font&gt;customer_d_name&lt;/font&gt;" style="edgeLabel;resizable=0;html=1;;align=center;verticalAlign=middle;fontSize=10;" parent="5LPZ8JhkKM64RX59Qe6A-40" connectable="0" vertex="1">
          <mxGeometry relative="1" as="geometry" />
        </mxCell>
        <mxCell id="5LPZ8JhkKM64RX59Qe6A-42" value="" style="endArrow=classic;html=1;rounded=0;" parent="1" edge="1">
          <mxGeometry relative="1" as="geometry">
            <mxPoint x="420" y="640" as="sourcePoint" />
            <mxPoint x="560" y="640" as="targetPoint" />
          </mxGeometry>
        </mxCell>
        <mxCell id="5LPZ8JhkKM64RX59Qe6A-43" value="&lt;font&gt;customer_e_name&lt;/font&gt;" style="edgeLabel;resizable=0;html=1;;align=center;verticalAlign=middle;fontSize=10;" parent="5LPZ8JhkKM64RX59Qe6A-42" connectable="0" vertex="1">
          <mxGeometry relative="1" as="geometry" />
        </mxCell>
        <mxCell id="5LPZ8JhkKM64RX59Qe6A-57" value="" style="endArrow=classic;html=1;rounded=0;entryX=-0.012;entryY=0.15;entryDx=0;entryDy=0;entryPerimeter=0;" parent="1" target="5LPZ8JhkKM64RX59Qe6A-1" edge="1">
          <mxGeometry relative="1" as="geometry">
            <mxPoint x="40" y="480" as="sourcePoint" />
            <mxPoint x="320" y="620" as="targetPoint" />
          </mxGeometry>
        </mxCell>
        <mxCell id="5LPZ8JhkKM64RX59Qe6A-59" value="&lt;span style=&quot;text-align: center;&quot;&gt;customer_a_name&lt;/span&gt;&lt;span&gt;.aethiqs-maat.nl&lt;/span&gt;" style="edgeLabel;resizable=0;html=1;;align=left;verticalAlign=bottom;rotation=22;fontSize=14;" parent="5LPZ8JhkKM64RX59Qe6A-57" connectable="0" vertex="1">
          <mxGeometry x="-1" relative="1" as="geometry" />
        </mxCell>
        <mxCell id="eGsDs66nEqjfUsVROLer-1" value="" style="endArrow=classic;html=1;rounded=0;entryX=0;entryY=0.5;entryDx=0;entryDy=0;" edge="1" parent="1" target="5LPZ8JhkKM64RX59Qe6A-1">
          <mxGeometry relative="1" as="geometry">
            <mxPoint x="40" y="621" as="sourcePoint" />
            <mxPoint x="336" y="720" as="targetPoint" />
          </mxGeometry>
        </mxCell>
        <mxCell id="eGsDs66nEqjfUsVROLer-3" value="&lt;span style=&quot;text-align: center;&quot;&gt;customer_c_name&lt;/span&gt;&lt;span&gt;.aethiqs-maat.nl&lt;/span&gt;" style="edgeLabel;resizable=0;html=1;;align=left;verticalAlign=bottom;fontSize=12;" connectable="0" vertex="1" parent="eGsDs66nEqjfUsVROLer-1">
          <mxGeometry x="-1" relative="1" as="geometry" />
        </mxCell>
        <mxCell id="eGsDs66nEqjfUsVROLer-4" value="" style="endArrow=classic;html=1;rounded=0;entryX=0;entryY=0.5;entryDx=0;entryDy=0;" edge="1" parent="1">
          <mxGeometry relative="1" as="geometry">
            <mxPoint x="40" y="560" as="sourcePoint" />
            <mxPoint x="340" y="610" as="targetPoint" />
          </mxGeometry>
        </mxCell>
        <mxCell id="eGsDs66nEqjfUsVROLer-6" value="&lt;span style=&quot;text-align: center;&quot;&gt;customer_b_name&lt;/span&gt;&lt;span&gt;.aethiqs-maat.nl&lt;/span&gt;" style="edgeLabel;resizable=0;html=1;;align=left;verticalAlign=bottom;rotation=9;fontSize=13;" connectable="0" vertex="1" parent="eGsDs66nEqjfUsVROLer-4">
          <mxGeometry x="-1" relative="1" as="geometry" />
        </mxCell>
        <mxCell id="eGsDs66nEqjfUsVROLer-7" value="" style="endArrow=classic;html=1;rounded=0;entryX=0;entryY=0.65;entryDx=0;entryDy=0;entryPerimeter=0;" edge="1" parent="1" target="5LPZ8JhkKM64RX59Qe6A-1">
          <mxGeometry relative="1" as="geometry">
            <mxPoint x="40" y="680" as="sourcePoint" />
            <mxPoint x="330" y="760" as="targetPoint" />
          </mxGeometry>
        </mxCell>
        <mxCell id="eGsDs66nEqjfUsVROLer-8" value="&lt;span style=&quot;text-align: center;&quot;&gt;customer_d_name&lt;/span&gt;&lt;span&gt;.aethiqs-maat.nl&lt;/span&gt;" style="edgeLabel;resizable=0;html=1;;align=left;verticalAlign=bottom;rotation=350;fontSize=13;" connectable="0" vertex="1" parent="eGsDs66nEqjfUsVROLer-7">
          <mxGeometry x="-1" relative="1" as="geometry" />
        </mxCell>
        <mxCell id="eGsDs66nEqjfUsVROLer-9" value="" style="endArrow=classic;html=1;rounded=0;entryX=0;entryY=0.883;entryDx=0;entryDy=0;entryPerimeter=0;" edge="1" parent="1" target="5LPZ8JhkKM64RX59Qe6A-1">
          <mxGeometry relative="1" as="geometry">
            <mxPoint x="40" y="760" as="sourcePoint" />
            <mxPoint x="339" y="819" as="targetPoint" />
          </mxGeometry>
        </mxCell>
        <mxCell id="eGsDs66nEqjfUsVROLer-10" value="&lt;span style=&quot;text-align: center;&quot;&gt;customer_e_name&lt;/span&gt;&lt;span&gt;.aethiqs-maat.nl&lt;/span&gt;" style="edgeLabel;resizable=0;html=1;;align=left;verticalAlign=bottom;rotation=339;fontSize=14;" connectable="0" vertex="1" parent="eGsDs66nEqjfUsVROLer-9">
          <mxGeometry x="-1" relative="1" as="geometry" />
        </mxCell>
      </root>
    </mxGraphModel>
  </diagram>
</mxfile>
